<?xml version="1.0" standalone="no"?>
<!DOCTYPE svg PUBLIC "-//W3C//DTD SVG 20010904//EN"
 "http://www.w3.org/TR/2001/REC-SVG-20010904/DTD/svg10.dtd">
<svg version="1.0" xmlns="http://www.w3.org/2000/svg"
 width="500.000000pt" height="500.000000pt" viewBox="0 0 500.000000 500.000000"
 preserveAspectRatio="xMidYMid meet">
<metadata>
Created by potrace 1.14, written by Peter Selinger 2001-2017
</metadata>
<g transform="translate(0.000000,500.000000) scale(0.100000,-0.100000)"
fill="#000000" stroke="none">
<path d="M656 4485 c-57 -20 -87 -45 -121 -100 l-30 -48 0 -1837 0 -1837 30
-49 c19 -30 49 -60 79 -79 l49 -30 1837 0 1837 0 49 30 c30 19 60 49 79 79
l30 49 0 1837 0 1837 -30 49 c-34 54 -78 88 -134 104 -23 6 -660 10 -1836 10
-1519 -1 -1806 -3 -1839 -15z m1711 -1086 c-10 -6 -351 -211 -758 -454 l-739
-444 0 454 0 455 758 0 c540 -1 752 -4 739 -11z m873 -899 l0 -910 -300 0
-300 0 0 910 0 910 300 0 300 0 0 -910z m451 874 c146 -46 291 -167 362 -301
177 -337 37 -746 -308 -898 -53 -24 -183 -55 -230 -55 l-25 0 0 638 c0 351 3
642 8 646 11 12 109 -3 193 -30z m-1308 -1026 c4 -79 7 -281 7 -450 l0 -308
-757 0 c-416 0 -754 3 -750 6 9 10 1481 893 1488 894 3 0 9 -64 12 -142z"/>
</g>
</svg>
